<svg width="657.9px" height="121.4px" xmlns="http://www.w3.org/2000/svg" viewBox="-78.94687499999998 14.300000000000004 657.89375 121.39999999999999" style="background: rgba(0, 0, 0, 0)" preserveAspectRatio="xMidYMid"><defs><linearGradient id="editing-gradient-gradient" x1="0" x2="1" y1="0.5" y2="0.5" gradientUnits="objectBoundingBox"><stop offset="0" stop-color="#51b3e6"></stop><stop offset="1" stop-color="#e64dde"></stop></linearGradient></defs><g><g transform="matrix(1.4,0,0,1.5,-59.9,173.9)"><path d="M 4.3 -50.7 L -9.6 -50.7 L -1.5 -92.9 L 12.6 -92.9 L 4.3 -50.7 Z M 60.1 -49.4 L 60.1 -49.4 L 60.1 -49.4 Q 52.3 -49.4 52.3 -55.4 L 52.3 -55.4 L 52.3 -55.4 Q 52.3 -58.1 53.4 -63.2 L 53.4 -63.2 L 53.4 -63.2 Q 54.6 -68.2 54.9 -70.3 L 54.9 -70.3 L 54.9 -70.3 Q 55.8 -75 55.8 -76.4 L 55.8 -76.4 L 55.8 -76.4 Q 55.8 -79.7 53.4 -79.7 L 53.4 -79.7 L 53.4 -79.7 Q 51.8 -79.7 50.3 -77.5 L 50.3 -77.5 L 50.3 -77.5 Q 48.7 -75.3 48 -70.9 L 48 -70.9 L 44.1 -50.7 L 31.6 -49.4 L 35 -66.8 L 35 -66.8 Q 35.6 -69.7 36.1 -73 L 36.1 -73 L 36.1 -73 Q 36.6 -76.2 36.6 -76.8 L 36.6 -76.8 L 36.6 -76.8 Q 36.6 -79.7 34.5 -79.7 L 34.5 -79.7 L 34.5 -79.7 Q 33 -79.7 31.4 -77.5 L 31.4 -77.5 L 31.4 -77.5 Q 29.8 -75.3 28.9 -70.9 L 28.9 -70.9 L 25 -50.7 L 12.4 -49.4 L 19.1 -83.3 L 29.5 -84.6 L 28.4 -78.2 L 28.4 -78.2 Q 30.1 -81.6 33.2 -83.1 L 33.2 -83.1 L 33.2 -83.1 Q 36.2 -84.6 41 -84.6 L 41 -84.6 L 41 -84.6 Q 43.8 -84.6 45.6 -83.3 L 45.6 -83.3 L 45.6 -83.3 Q 47.4 -81.9 48 -79.8 L 48 -79.8 L 48 -79.8 Q 49 -82 51.8 -83.3 L 51.8 -83.3 L 51.8 -83.3 Q 54.6 -84.6 58 -84.6 L 58 -84.6 L 58 -84.6 Q 61.5 -84.6 63.2 -83.9 L 63.2 -83.9 L 63.2 -83.9 Q 64.9 -83.2 65.9 -81.9 L 65.9 -81.9 L 65.9 -81.9 Q 67.6 -79.7 67.6 -75.6 L 67.6 -75.6 L 67.6 -75.6 Q 67.6 -71.6 65.9 -63.2 L 65.9 -63.2 L 65.9 -63.2 Q 65 -59.1 65 -57.6 L 65 -57.6 L 65 -57.6 Q 65 -56.1 65.8 -55.2 L 65.8 -55.2 L 65.8 -55.2 Q 66.7 -54.3 68 -54.2 L 68 -54.2 L 68 -54.2 Q 67.4 -52 65.1 -50.7 L 65.1 -50.7 L 65.1 -50.7 Q 62.9 -49.4 60.1 -49.4 Z M 75.7 -52.6 L 75.7 -52.6 L 75.7 -52.6 Q 74.2 -54.3 73.5 -56.9 L 73.5 -56.9 L 73.5 -56.9 Q 72.9 -59.5 72.9 -63.8 L 72.9 -63.8 L 72.9 -63.8 Q 72.9 -68.1 74.3 -72 L 74.3 -72 L 74.3 -72 Q 75.8 -75.9 78.5 -78.7 L 78.5 -78.7 L 78.5 -78.7 Q 84 -84.6 93.1 -84.6 L 93.1 -84.6 L 93.1 -84.6 Q 96.3 -84.6 98.7 -83.5 L 98.7 -83.5 L 109.7 -84.6 L 104.9 -59.7 L 104.9 -59.7 Q 104.7 -58.9 104.7 -57.5 L 104.7 -57.5 L 104.7 -57.5 Q 104.7 -56.1 105.6 -55.2 L 105.6 -55.2 L 105.6 -55.2 Q 106.5 -54.3 107.7 -54.2 L 107.7 -54.2 L 107.7 -54.2 Q 107.1 -52 104.8 -50.7 L 104.8 -50.7 L 104.8 -50.7 Q 102.4 -49.4 99.8 -49.4 L 99.8 -49.4 L 99.8 -49.4 Q 97.2 -49.4 95.4 -50.4 L 95.4 -50.4 L 95.4 -50.4 Q 93.7 -51.4 93.1 -53.1 L 93.1 -53.1 L 93.1 -53.1 Q 92.1 -51.5 89.9 -50.4 L 89.9 -50.4 L 89.9 -50.4 Q 87.8 -49.4 84.9 -49.4 L 84.9 -49.4 L 84.9 -49.4 Q 81.9 -49.4 79.6 -50.2 L 79.6 -50.2 L 79.6 -50.2 Q 77.2 -51 75.7 -52.6 Z M 89.2 -78.6 L 89.2 -78.6 L 89.2 -78.6 Q 88.5 -77.5 87.8 -75.5 L 87.8 -75.5 L 87.8 -75.5 Q 87.2 -73.6 86.1 -68.3 L 86.1 -68.3 L 86.1 -68.3 Q 85.1 -63.1 85.1 -59.4 L 85.1 -59.4 L 85.1 -59.4 Q 85.1 -55.7 85.7 -54.6 L 85.7 -54.6 L 85.7 -54.6 Q 86.2 -53.5 87.3 -53.5 L 87.3 -53.5 L 87.3 -53.5 Q 89.3 -53.5 90.8 -55.5 L 90.8 -55.5 L 90.8 -55.5 Q 92.3 -57.4 92.9 -60.9 L 92.9 -60.9 L 96.3 -79.6 L 96.3 -79.6 Q 94.9 -80.8 93.4 -80.8 L 93.4 -80.8 L 93.4 -80.8 Q 91.8 -80.8 90.9 -80.3 L 90.9 -80.3 L 90.9 -80.3 Q 89.9 -79.8 89.2 -78.6 Z M 117.4 -77.5 L 117.4 -77.5 L 117.4 -77.5 Q 119.6 -80.5 122.9 -82.6 L 122.9 -82.6 L 122.9 -82.6 Q 126.2 -84.6 130.2 -84.6 L 130.2 -84.6 L 130.2 -84.6 Q 134.2 -84.6 136.2 -83.3 L 136.2 -83.3 L 148.7 -84.6 L 144.3 -60 L 144.3 -60 Q 142.1 -47.5 137.4 -42.6 L 137.4 -42.6 L 137.4 -42.6 Q 132.8 -37.9 124 -37.9 L 124 -37.9 L 124 -37.9 Q 117.3 -37.9 113.4 -40 L 113.4 -40 L 113.4 -40 Q 109.6 -42.1 109.6 -45.6 L 109.6 -45.6 L 109.6 -45.6 Q 109.6 -48.3 111.6 -49.8 L 111.6 -49.8 L 111.6 -49.8 Q 113.6 -51.3 116.6 -51.3 L 116.6 -51.3 L 116.6 -51.3 Q 119.3 -51.3 121.4 -50.1 L 121.4 -50.1 L 121.4 -50.1 Q 122.6 -49.4 123.2 -48.5 L 123.2 -48.5 L 123.2 -48.5 Q 121.7 -47.2 121.7 -45.1 L 121.7 -45.1 L 121.7 -45.1 Q 121.7 -42.4 124.2 -42.4 L 124.2 -42.4 L 124.2 -42.4 Q 128.5 -42.4 131 -52.5 L 131 -52.5 L 131 -52.5 Q 131.7 -55.2 132.2 -58 L 132.2 -58 L 132.2 -58 Q 129.4 -54.5 122.8 -54.5 L 122.8 -54.5 L 122.8 -54.5 Q 118.3 -54.5 115.7 -56.7 L 115.7 -56.7 L 115.7 -56.7 Q 113 -58.8 113 -64 L 113 -64 L 113 -64 Q 113 -67.2 114.1 -70.8 L 114.1 -70.8 L 114.1 -70.8 Q 115.2 -74.4 117.4 -77.5 Z M 125.7 -63.8 L 125.7 -63.8 L 125.7 -63.8 Q 125.7 -59.4 128 -59.4 L 128 -59.4 L 128 -59.4 Q 129.5 -59.4 131 -61.1 L 131 -61.1 L 131 -61.1 Q 132.1 -62.4 132.6 -64.4 L 132.6 -64.4 L 135.8 -80.8 L 135.8 -80.8 Q 135.5 -80.9 135.2 -81 L 135.2 -81 L 135.2 -81 Q 134.6 -81.3 133.7 -81.3 L 133.7 -81.3 L 133.7 -81.3 Q 129.8 -81.3 127.5 -74.9 L 127.5 -74.9 L 127.5 -74.9 Q 125.7 -69.9 125.7 -63.8 Z M 177.1 -61.5 L 177.1 -61.5 L 177.1 -61.5 Q 178.7 -60.4 178.7 -58 L 178.7 -58 L 178.7 -58 Q 178.7 -55.6 177.5 -54.1 L 177.5 -54.1 L 177.5 -54.1 Q 176.3 -52.6 174.3 -51.5 L 174.3 -51.5 L 174.3 -51.5 Q 170.2 -49.4 165.8 -49.4 L 165.8 -49.4 L 165.8 -49.4 Q 161.4 -49.4 158.8 -50.4 L 158.8 -50.4 L 158.8 -50.4 Q 156.2 -51.3 154.5 -53.1 L 154.5 -53.1 L 154.5 -53.1 Q 151.1 -56.5 151.1 -62.7 L 151.1 -62.7 L 151.1 -62.7 Q 151.1 -72.4 156.3 -78.3 L 156.3 -78.3 L 156.3 -78.3 Q 161.9 -84.6 171.7 -84.6 L 171.7 -84.6 L 171.7 -84.6 Q 177.8 -84.6 180.8 -82.1 L 180.8 -82.1 L 180.8 -82.1 Q 183.1 -80.1 183.1 -77 L 183.1 -77 L 183.1 -77 Q 183.1 -65.7 163.6 -65.7 L 163.6 -65.7 L 163.6 -65.7 Q 163.4 -64.1 163.4 -62.7 L 163.4 -62.7 L 163.4 -62.7 Q 163.4 -59.7 164.7 -58.6 L 164.7 -58.6 L 164.7 -58.6 Q 166 -57.5 168.4 -57.5 L 168.4 -57.5 L 168.4 -57.5 Q 170.8 -57.5 173.4 -58.6 L 173.4 -58.6 L 173.4 -58.6 Q 176 -59.7 177.1 -61.5 Z M 164.1 -68.5 L 164.1 -68.5 L 164.1 -68.5 Q 168.6 -68.5 171.2 -71.3 L 171.2 -71.3 L 171.2 -71.3 Q 173.8 -74 173.8 -78.3 L 173.8 -78.3 L 173.8 -78.3 Q 173.8 -79.8 173.3 -80.6 L 173.3 -80.6 L 173.3 -80.6 Q 172.8 -81.4 171.7 -81.4 L 171.7 -81.4 L 171.7 -81.4 Q 170.6 -81.4 169.7 -80.9 L 169.7 -80.9 L 169.7 -80.9 Q 168.7 -80.5 167.8 -79.1 L 167.8 -79.1 L 167.8 -79.1 Q 165.4 -75.9 164.1 -68.5 Z M 204.4 -73.2 L 204.4 -73.2 L 204.4 -73.2 Q 205.3 -75.5 205.3 -77.6 L 205.3 -77.6 L 205.3 -77.6 Q 205.3 -81.4 202.2 -81.4 L 202.2 -81.4 L 202.2 -81.4 Q 200.6 -81.4 199.3 -79.9 L 199.3 -79.9 L 199.3 -79.9 Q 198 -78.5 198 -76.7 L 198 -76.7 L 198 -76.7 Q 198 -75.4 199 -74.4 L 199 -74.4 L 199 -74.4 Q 200.5 -73 204.2 -70.7 L 204.2 -70.7 L 204.2 -70.7 Q 208 -68.4 209.5 -66.5 L 209.5 -66.5 L 209.5 -66.5 Q 210.9 -64.6 210.9 -62 L 210.9 -62 L 210.9 -62 Q 210.9 -59.4 209.7 -57 L 209.7 -57 L 209.7 -57 Q 208.4 -54.7 206.2 -53 L 206.2 -53 L 206.2 -53 Q 201.4 -49.4 193.7 -49.4 L 193.7 -49.4 L 193.7 -49.4 Q 189.5 -49.4 186.3 -51.6 L 186.3 -51.6 L 186.3 -51.6 Q 183.1 -53.7 183.1 -56.2 L 183.1 -56.2 L 183.1 -56.2 Q 183.1 -58.7 185 -60.2 L 185 -60.2 L 185 -60.2 Q 186.8 -61.6 189.5 -61.6 L 189.5 -61.6 L 189.5 -61.6 Q 192.2 -61.6 193.8 -60.6 L 193.8 -60.6 L 193.8 -60.6 Q 193 -58.5 193 -57.1 L 193 -57.1 L 193 -57.1 Q 193 -52.9 196.6 -52.9 L 196.6 -52.9 L 196.6 -52.9 Q 198.1 -52.9 199.1 -53.8 L 199.1 -53.8 L 199.1 -53.8 Q 200.2 -54.8 200.2 -56.5 L 200.2 -56.5 L 200.2 -56.5 Q 200.2 -59.7 194.6 -63.2 L 194.6 -63.2 L 194.6 -63.2 Q 190.2 -66.1 189.1 -67.3 L 189.1 -67.3 L 189.1 -67.3 Q 187.4 -69.3 187.4 -71.9 L 187.4 -71.9 L 187.4 -71.9 Q 187.4 -74.4 188.6 -76.9 L 188.6 -76.9 L 188.6 -76.9 Q 189.8 -79.3 192.1 -81 L 192.1 -81 L 192.1 -81 Q 196.8 -84.6 204.9 -84.6 L 204.9 -84.6 L 204.9 -84.6 Q 209 -84.6 211.5 -83 L 211.5 -83 L 211.5 -83 Q 214 -81.3 214 -78.5 L 214 -78.5 L 214 -78.5 Q 214 -75.7 212.3 -74.1 L 212.3 -74.1 L 212.3 -74.1 Q 210.6 -72.5 207.5 -72.5 L 207.5 -72.5 L 207.5 -72.5 Q 205.4 -72.5 204.4 -73.2 Z M 255.4 -71.3 L 268.4 -72.5 L 268.4 -72.5 Q 263.8 -62.4 263.8 -50.6 L 263.8 -50.6 L 263.8 -50.6 Q 262 -49.4 259.5 -49.4 L 259.5 -49.4 L 259.5 -49.4 Q 257 -49.4 255.4 -50.6 L 255.4 -50.6 L 255.4 -50.6 Q 253.8 -51.8 253.5 -53 L 253.5 -53 L 253.5 -53 Q 251.9 -51.3 249.3 -50.4 L 249.3 -50.4 L 249.3 -50.4 Q 246.7 -49.4 243.9 -49.4 L 243.9 -49.4 L 243.9 -49.4 Q 241.2 -49.4 238.8 -50.3 L 238.8 -50.3 L 238.8 -50.3 Q 236.4 -51.2 234.5 -53.2 L 234.5 -53.2 L 234.5 -53.2 Q 230.4 -57.6 230.4 -65.8 L 230.4 -65.8 L 230.4 -65.8 Q 230.4 -78.6 237.3 -86.3 L 237.3 -86.3 L 237.3 -86.3 Q 244.3 -94.2 256.8 -94.2 L 256.8 -94.2 L 256.8 -94.2 Q 265.4 -94.2 268.5 -89.7 L 268.5 -89.7 L 268.5 -89.7 Q 269.5 -88.3 269.5 -86.6 L 269.5 -86.6 L 269.5 -86.6 Q 269.5 -84.9 268.7 -83.5 L 268.7 -83.5 L 268.7 -83.5 Q 268 -82.1 266.8 -80.9 L 266.8 -80.9 L 266.8 -80.9 Q 264.1 -78.4 260.7 -78.4 L 260.7 -78.4 L 260.7 -78.4 Q 259.4 -78.4 258.1 -78.8 L 258.1 -78.8 L 258.1 -78.8 Q 258.3 -80.7 258.3 -83 L 258.3 -83 L 258.3 -83 Q 258.3 -85.2 258.2 -86.2 L 258.2 -86.2 L 258.2 -86.2 Q 258 -87.2 257.6 -88.1 L 257.6 -88.1 L 257.6 -88.1 Q 256.8 -89.8 255 -89.8 L 255 -89.8 L 255 -89.8 Q 253.1 -89.8 251.1 -87.9 L 251.1 -87.9 L 251.1 -87.9 Q 249.1 -85.9 247.5 -82.7 L 247.5 -82.7 L 247.5 -82.7 Q 244 -75.5 244 -66.9 L 244 -66.9 L 244 -66.9 Q 244 -62.9 245.5 -60.1 L 245.5 -60.1 L 245.5 -60.1 Q 247.2 -57 250.1 -57 L 250.1 -57 L 250.1 -57 Q 251.2 -57 252.1 -57.6 L 252.1 -57.6 L 252.1 -57.6 Q 253 -58.1 253.4 -58.4 L 253.4 -58.4 L 255.4 -71.3 Z M 274.3 -52.6 L 274.3 -52.6 L 274.3 -52.6 Q 272.8 -54.3 272.1 -56.9 L 272.1 -56.9 L 272.1 -56.9 Q 271.4 -59.5 271.4 -63.8 L 271.4 -63.8 L 271.4 -63.8 Q 271.4 -68.1 272.9 -72 L 272.9 -72 L 272.9 -72 Q 274.4 -75.9 277.1 -78.7 L 277.1 -78.7 L 277.1 -78.7 Q 282.6 -84.6 291.7 -84.6 L 291.7 -84.6 L 291.7 -84.6 Q 294.9 -84.6 297.3 -83.5 L 297.3 -83.5 L 308.2 -84.6 L 303.5 -59.7 L 303.5 -59.7 Q 303.3 -58.9 303.3 -57.5 L 303.3 -57.5 L 303.3 -57.5 Q 303.3 -56.1 304.2 -55.2 L 304.2 -55.2 L 304.2 -55.2 Q 305 -54.3 306.3 -54.2 L 306.3 -54.2 L 306.3 -54.2 Q 305.7 -52 303.4 -50.7 L 303.4 -50.7 L 303.4 -50.7 Q 301 -49.4 298.4 -49.4 L 298.4 -49.4 L 298.4 -49.4 Q 295.8 -49.4 294 -50.4 L 294 -50.4 L 294 -50.4 Q 292.2 -51.4 291.7 -53.1 L 291.7 -53.1 L 291.7 -53.1 Q 290.7 -51.5 288.5 -50.4 L 288.5 -50.4 L 288.5 -50.4 Q 286.4 -49.4 283.4 -49.4 L 283.4 -49.4 L 283.4 -49.4 Q 280.5 -49.4 278.2 -50.2 L 278.2 -50.2 L 278.2 -50.2 Q 275.8 -51 274.3 -52.6 Z M 287.8 -78.6 L 287.8 -78.6 L 287.8 -78.6 Q 287.1 -77.5 286.4 -75.5 L 286.4 -75.5 L 286.4 -75.5 Q 285.8 -73.6 284.7 -68.3 L 284.7 -68.3 L 284.7 -68.3 Q 283.7 -63.1 283.7 -59.4 L 283.7 -59.4 L 283.7 -59.4 Q 283.7 -55.7 284.2 -54.6 L 284.2 -54.6 L 284.2 -54.6 Q 284.8 -53.5 285.8 -53.5 L 285.8 -53.5 L 285.8 -53.5 Q 287.9 -53.5 289.4 -55.5 L 289.4 -55.5 L 289.4 -55.5 Q 290.9 -57.4 291.5 -60.9 L 291.5 -60.9 L 294.9 -79.6 L 294.9 -79.6 Q 293.5 -80.8 292 -80.8 L 292 -80.8 L 292 -80.8 Q 290.4 -80.8 289.5 -80.3 L 289.5 -80.3 L 289.5 -80.3 Q 288.5 -79.8 287.8 -78.6 Z M 327 -54.2 L 327 -54.2 L 327 -54.2 Q 325 -49.4 318.7 -49.4 L 318.7 -49.4 L 318.7 -49.4 Q 315.5 -49.4 313.4 -51.7 L 313.4 -51.7 L 313.4 -51.7 Q 311.8 -53.5 311.8 -55.6 L 311.8 -55.6 L 311.8 -55.6 Q 311.8 -60.4 314 -70.9 L 314 -70.9 L 318.7 -95.5 L 331.7 -96.8 L 325.5 -64.4 L 325.5 -64.4 Q 324.4 -59.7 324.4 -58 L 324.4 -58 L 324.4 -58 Q 324.4 -54.4 327 -54.2 Z M 347.7 -54.2 L 347.7 -54.2 L 347.7 -54.2 Q 345.8 -49.4 339.4 -49.4 L 339.4 -49.4 L 339.4 -49.4 Q 336.2 -49.4 334.2 -51.7 L 334.2 -51.7 L 334.2 -51.7 Q 332.5 -53.5 332.5 -55.6 L 332.5 -55.6 L 332.5 -55.6 Q 332.5 -60.4 334.7 -70.9 L 334.7 -70.9 L 339.4 -95.5 L 352.4 -96.8 L 346.2 -64.4 L 346.2 -64.4 Q 345.1 -59.7 345.1 -58 L 345.1 -58 L 345.1 -58 Q 345.1 -54.4 347.7 -54.2 Z M 379.1 -61.5 L 379.1 -61.5 L 379.1 -61.5 Q 380.7 -60.4 380.7 -58 L 380.7 -58 L 380.7 -58 Q 380.7 -55.6 379.5 -54.1 L 379.5 -54.1 L 379.5 -54.1 Q 378.3 -52.6 376.3 -51.5 L 376.3 -51.5 L 376.3 -51.5 Q 372.2 -49.4 367.8 -49.4 L 367.8 -49.4 L 367.8 -49.4 Q 363.4 -49.4 360.8 -50.4 L 360.8 -50.4 L 360.8 -50.4 Q 358.2 -51.3 356.4 -53.1 L 356.4 -53.1 L 356.4 -53.1 Q 353 -56.5 353 -62.7 L 353 -62.7 L 353 -62.7 Q 353 -72.4 358.3 -78.3 L 358.3 -78.3 L 358.3 -78.3 Q 363.9 -84.6 373.7 -84.6 L 373.7 -84.6 L 373.7 -84.6 Q 379.8 -84.6 382.8 -82.1 L 382.8 -82.1 L 382.8 -82.1 Q 385 -80.1 385 -77 L 385 -77 L 385 -77 Q 385 -65.7 365.6 -65.7 L 365.6 -65.7 L 365.6 -65.7 Q 365.3 -64.1 365.3 -62.7 L 365.3 -62.7 L 365.3 -62.7 Q 365.3 -59.7 366.6 -58.6 L 366.6 -58.6 L 366.6 -58.6 Q 368 -57.5 370.4 -57.5 L 370.4 -57.5 L 370.4 -57.5 Q 372.8 -57.5 375.4 -58.6 L 375.4 -58.6 L 375.4 -58.6 Q 378 -59.7 379.1 -61.5 Z M 366 -68.5 L 366 -68.5 L 366 -68.5 Q 370.6 -68.5 373.2 -71.3 L 373.2 -71.3 L 373.2 -71.3 Q 375.8 -74 375.8 -78.3 L 375.8 -78.3 L 375.8 -78.3 Q 375.8 -79.8 375.3 -80.6 L 375.3 -80.6 L 375.3 -80.6 Q 374.7 -81.4 373.7 -81.4 L 373.7 -81.4 L 373.7 -81.4 Q 372.6 -81.4 371.6 -80.9 L 371.6 -80.9 L 371.6 -80.9 Q 370.7 -80.5 369.8 -79.1 L 369.8 -79.1 L 369.8 -79.1 Q 367.4 -75.9 366 -68.5 Z M 407.3 -68.7 L 407.3 -68.7 L 407.3 -68.7 Q 409.6 -72.8 409.6 -76.9 L 409.6 -76.9 L 409.6 -76.9 Q 409.6 -79.7 407.6 -79.7 L 407.6 -79.7 L 407.6 -79.7 Q 406 -79.7 404.4 -77.1 L 404.4 -77.1 L 404.4 -77.1 Q 402.8 -74.4 402.3 -71.1 L 402.3 -71.1 L 398.9 -50.7 L 385.7 -49.4 L 392.2 -83.3 L 402.8 -84.6 L 401.6 -78.2 L 401.6 -78.2 Q 404.8 -84.6 411.8 -84.6 L 411.8 -84.6 L 411.8 -84.6 Q 415.5 -84.6 417.5 -82.7 L 417.5 -82.7 L 417.5 -82.7 Q 419.5 -80.8 419.5 -76.8 L 419.5 -76.8 L 419.5 -76.8 Q 419.5 -72.9 417 -70.4 L 417 -70.4 L 417 -70.4 Q 414.4 -67.9 409.9 -67.9 L 409.9 -67.9 L 409.9 -67.9 Q 408 -67.9 407.3 -68.7 Z M 440.9 -57.9 L 440.9 -57.9 L 440.9 -57.9 Q 437.6 -54.5 431.5 -54.5 L 431.5 -54.5 L 431.5 -54.5 Q 423.9 -54.5 422.3 -60 L 422.3 -60 L 422.3 -60 Q 421.8 -61.7 421.8 -63.6 L 421.8 -63.6 L 421.8 -63.6 Q 421.8 -65.4 422.2 -67.3 L 422.2 -67.3 L 425.2 -83.3 L 438.2 -84.6 L 434.6 -66 L 434.6 -66 Q 434.5 -65.2 434.3 -64.3 L 434.3 -64.3 L 434.3 -64.3 Q 434.1 -63.4 434.1 -62.4 L 434.1 -62.4 L 434.1 -62.4 Q 434.1 -61.5 434.5 -60.9 L 434.5 -60.9 L 434.5 -60.9 Q 434.8 -60.3 435.2 -59.9 L 435.2 -59.9 L 435.2 -59.9 Q 436 -59.4 437.4 -59.4 L 437.4 -59.4 L 437.4 -59.4 Q 438.7 -59.4 439.9 -61.1 L 439.9 -61.1 L 439.9 -61.1 Q 441.1 -62.7 441.7 -65.6 L 441.7 -65.6 L 445.2 -83.3 L 457.8 -84.6 L 453 -59.5 L 453 -59.5 Q 450.6 -47.2 445.8 -42.3 L 445.8 -42.3 L 445.8 -42.3 Q 443.3 -39.8 440.1 -38.8 L 440.1 -38.8 L 440.1 -38.8 Q 436.8 -37.8 432.7 -37.8 L 432.7 -37.8 L 432.7 -37.8 Q 425.9 -37.8 422.1 -40 L 422.1 -40 L 422.1 -40 Q 418.3 -42.1 418.3 -45.6 L 418.3 -45.6 L 418.3 -45.6 Q 418.3 -48.2 420.2 -49.7 L 420.2 -49.7 L 420.2 -49.7 Q 422.2 -51.2 425.3 -51.2 L 425.3 -51.2 L 425.3 -51.2 Q 428 -51.2 430 -50.1 L 430 -50.1 L 430 -50.1 Q 431.3 -49.4 431.8 -48.5 L 431.8 -48.5 L 431.8 -48.5 Q 430.4 -47.2 430.4 -45.1 L 430.4 -45.1 L 430.4 -45.1 Q 430.4 -42.3 432.9 -42.3 L 432.9 -42.3 L 432.9 -42.3 Q 437.1 -42.3 439.6 -52 L 439.6 -52 L 439.6 -52 Q 440.3 -54.9 440.9 -57.9 Z" fill="url(#editing-gradient-gradient)"></path></g></g><style>text {
  font-size: 64px;
  font-family: Arial Black;
  dominant-baseline: central;
  text-anchor: middle;
}</style></svg>